HIERARCHY
ROOT pelvis
{
  OFFSET 0 100 0
  CHANNELS 6 Xposition Yposition Zposition Zrotation Xrotation Yrotation
  JOINT pelvis_right_femur
  {
    OFFSET -10.78128 -3.44521 -0.5502486
    CHANNELS 3 Zrotation Xrotation Yrotation
    JOINT right_femur_tibia
    {
      OFFSET -0.8047443 -44.0398 -0.1307829
      CHANNELS 3 Zrotation Xrotation Yrotation
      JOINT right_tibia_foot
      {
        OFFSET 3.006224 -47.83518 -5
        CHANNELS 3 Zrotation Xrotation Yrotation
        End Site
        {
          OFFSET 0 -5 15
        }
      }
    }
  }
  JOINT pelvis_left_femur
  {
    OFFSET 10.78128 -3.44521 -0.5502486
    CHANNELS 3 Zrotation Xrotation Yrotation
    JOINT left_femur_tibia
    {
      OFFSET 0.8047443 -44.0398 -0.1307829
      CHANNELS 3 Zrotation Xrotation Yrotation
      JOINT left_tibia_foot
      {
        OFFSET -4.370144 -48.10324 -4.275266
        CHANNELS 3 Zrotation Xrotation Yrotation
        End Site
        {
          OFFSET 0 -5 15
        }
      }
    }
  }
  JOINT pelvis_spine1
  {
    OFFSET 0 6.468898 -3.129235
    CHANNELS 3 Zrotation Xrotation Yrotation
    JOINT spine1
    {
      OFFSET 0 23.15396 4.99043
      CHANNELS 3 Zrotation Xrotation Yrotation
      JOINT spine2
      {
        OFFSET 0 20.79997 -5.064912
        CHANNELS 3 Zrotation Xrotation Yrotation
        JOINT neck
        {
          OFFSET 0 14.38658 9.616178
          CHANNELS 3 Zrotation Xrotation Yrotation
          End Site
          {
            OFFSET 0 20 0
          }
        }
      }
      JOINT right_manubrium
      {
        OFFSET -5.722621 16.35077 3.967754
        CHANNELS 3 Zrotation Xrotation Yrotation
        JOINT right_clavicle
        {
          OFFSET -13.16364 1.694482 -4.693211
          CHANNELS 3 Zrotation Xrotation Yrotation
          JOINT right_humerus
          {
            OFFSET -28.5034 -0.3100689 -2.792744
            CHANNELS 3 Zrotation Xrotation Yrotation
            JOINT right_radius
            {
              OFFSET -25.15693 0.02248979 -1.271978
              CHANNELS 3 Zrotation Xrotation Yrotation
              End Site
              {
                OFFSET -15 0 0
              }
            }
          }
        }
      }
      JOINT left_manubrium
      {
        OFFSET 5.722621 16.35077 3.967754
        CHANNELS 3 Zrotation Xrotation Yrotation
        JOINT left_clavicle
        {
          OFFSET 13.16364 1.694482 -4.693211
          CHANNELS 3 Zrotation Xrotation Yrotation
          JOINT left_humerus
          {
            OFFSET 29.39168 -1.063119 -2.237045
            CHANNELS 3 Zrotation Xrotation Yrotation
            JOINT left_radius
            {
              OFFSET 24.59957 -0.9528479 0.9047498
              CHANNELS 3 Zrotation Xrotation Yrotation
              End Site
              {
                OFFSET 15 -0 -0
              }
            }
          }
        }
      }
    }
  }
}
MOTION
Frames: 19
Frame Time: 0.0416666666667
0 103.5113 0 2.462611 -2.206921 0.1302826 1.152254 -11.2587 8.325449 -0 37.0518 -0 -3.945285 -19.23461 -3.548263 -7.862981 11.66949 -24.16201 -0 4.368437 -0 7.71467 -15.45884 26.03233 -2.733175 -3.337029 5.13402 3.009997 9.979609 -7.667687 1.346068 22.386 5.603568 1.965361 -25.62549 9.21534 5.998328 -19.16288 10.76159 85.87698 34.17438 -19.74966 -0 0 14.93496 -6.031013 7.619682 3.378766 5.599231 -20.54124 -1.420003 -95.8668 27.01503 24.44154 0 0 -12.90049 9.156643 17.2849 3.672794
0.3078133 103.362 1.462062 1.892915 -1.397423 0.07457558 2.200097 -13.58219 9.169682 -0 36.7391 -0 -3.660699 -18.13551 -3.793297 -7.565803 11.32982 -23.86127 -0 4.742073 -0 7.062817 -16.5379 26.08973 -2.760788 -3.311803 5.245186 2.894506 10.00699 -7.513031 1.363052 22.54497 5.439566 1.881846 -25.37098 9.081078 5.978108 -19.19621 10.69419 85.67319 34.34308 -19.33764 -0 0 15.00206 -6.22719 7.634454 3.549976 5.423954 -20.40447 -1.510924 -95.95601 27.18383 24.68214 0 0 -12.61817 8.93629 17.32332 3.947447
0.6109578 103.2376 3.025728 1.072278 -0.6364265 -0.003108306 3.455618 -16.6723 9.438927 -0 35.92162 -0 -4.080333 -16.24556 -3.962137 -7.006477 11.22985 -23.29642 -0 5.248685 -0 5.196734 -18.48203 25.42979 -2.58105 -3.126681 4.919529 3.172555 10.01009 -7.862077 1.250872 22.02943 6.014806 2.270961 -26.10593 9.371467 6.023107 -19.00341 10.91517 86.35164 34.16589 -20.52757 -0 0 14.31227 -5.873199 7.579726 3.465085 5.723733 -20.80224 -1.642406 -95.3791 26.9644 23.90396 0 0 -14.46183 9.264639 16.48885 3.766057
0.9085877 103.0978 4.713536 0.3173195 0.1327342 -0.07399034 4.67283 -19.95888 9.643891 -0 34.74671 -0 -4.539558 -14.50841 -4.076616 -6.519185 11.18977 -22.6895 -0 5.613282 -0 3.845073 -20.25644 24.81015 -2.456462 -2.980092 4.70502 3.345509 10.01025 -8.076802 1.173366 21.69693 6.394974 2.537683 -26.58771 9.554738 6.041001 -18.8696 11.05171 86.80704 34.08031 -21.30034 -0 0 13.81219 -5.6564 7.522647 3.452346 5.89256 -21.06189 -1.774208 -94.98203 26.89316 23.40246 0 0 -15.78612 9.42474 15.87795 3.746375
1.201112 102.8567 6.62195 -0.3468046 0.9596132 -0.1027819 5.790628 -23.74561 9.476698 -0 32.40416 -0 -5.118317 -12.59181 -3.997096 -6.115076 11.32179 -21.85091 -0 5.784141 -0 3.046515 -21.95728 24.04097 -2.32703 -2.822433 4.477742 3.518045 10.01802 -8.294065 1.091667 21.37432 6.781001 2.817081 -27.09182 9.739504 6.062285 -18.72875 11.18051 87.31574 33.98063 -22.15291 -0 0 13.25778 -5.396739 7.405883 3.438021 6.037291 -21.33527 -1.97576 -94.6139 26.97094 22.94733 0 0 -17.23529 9.485009 15.23462 3.897021
1.486205 102.4313 8.852475 -0.8560935 1.862431 -0.05361515 6.708434 -27.72452 9.0805 -0 28.88383 -0 -5.582352 -10.64375 -3.779262 -5.826817 11.62103 -20.86378 -0 5.825149 -0 2.718643 -23.47481 23.1612 -2.199301 -2.65818 4.269893 3.662924 10.03115 -8.479712 1.010954 21.08587 7.133919 3.084149 -27.53219 9.890233 6.074178 -18.5884 11.29113 87.80542 33.91799 -22.94164 -0 0 12.69811 -5.18572 7.288959 3.471286 6.146833 -21.59384 -2.210268 -94.25398 27.10604 22.52934 0 0 -18.67239 9.473787 14.58611 4.150707
1.755511 101.7632 11.523 -1.191798 2.817701 0.109282 7.360672 -31.55844 8.503923 -0 24.36043 -0 -5.858781 -8.642725 -3.451642 -5.643943 12.13135 -19.78515 -0 5.958838 -0 2.649772 -24.68395 22.12454 -2.070969 -2.487592 4.075473 3.781463 10.05389 -8.640839 0.9289763 20.82574 7.460356 3.344942 -27.90816 10.00455 6.081179 -18.44332 11.38747 88.29416 33.88789 -23.69573 -0 0 12.12124 -5.027507 7.177268 3.552227 6.227104 -21.8487 -2.483429 -93.89302 27.30063 22.13255 0 0 -20.12354 9.38094 13.92611 4.524256
1.994448 100.8626 14.74295 -1.408018 3.74491 0.418999 7.77068 -34.76134 7.854476 -0 19.60144 -0 -6.015846 -6.586875 -3.060324 -5.49934 12.87113 -18.73274 -0 6.580483 -0 2.444022 -25.39689 20.8581 -1.945624 -2.315273 3.900989 3.866608 10.08768 -8.773495 0.8469632 20.59796 7.750368 3.592557 -28.19046 10.06947 6.082829 -18.29398 11.46973 88.76575 33.90198 -24.38343 -0 0 11.54342 -4.960188 7.100502 3.693128 6.28096 -22.09709 -2.778367 -93.51718 27.51522 21.73901 0 0 -21.54308 9.216636 13.26884 4.990284
2.187153 99.83243 18.59728 -1.616076 4.519087 0.9034576 8.031199 -36.79949 7.208635 -0 15.68632 -0 -6.250987 -4.546504 -2.61441 -5.288118 13.79733 -17.80899 -0 8.160178 -0 1.617508 -25.34982 19.21464 -1.830331 -2.149933 3.753862 3.911648 10.13549 -8.874454 0.7674607 20.41171 7.990241 3.81652 -28.35293 10.07332 6.081867 -18.14492 11.53727 89.20166 33.96249 -24.97643 -0 0 10.99001 -5.013327 7.079949 3.896247 6.308071 -22.33281 -3.080284 -93.13079 27.72929 21.35087 0 0 -22.8651 8.979832 12.64318 5.534244
2.327186 98.86125 23.12682 -1.941122 5.011609 1.566933 8.272862 -37.19952 6.613543 -0 13.58691 -0 -6.732011 -2.806051 -2.109534 -4.909125 14.7287 -17.03968 -0 11.13748 -0 -0.2428552 -24.23044 17.03444 -1.734788 -2.000049 3.646844 3.907872 10.20104 -8.935934 0.6941987 20.28018 8.160668 4.001783 -28.36445 10.00221 6.080363 -18.00445 11.58893 89.56864 34.07574 -25.42409 -0 0 10.49567 -5.225687 7.14124 4.167483 6.302848 -22.54165 -3.370558 -92.74122 27.91432 20.97892 0 0 -23.99792 8.673911 12.08144 6.130334
2.430894 98.18025 28.31118 -2.45065 5.134852 2.349564 8.611749 -35.73945 6.109258 -0 13.62401 -0 -7.413744 -1.838372 -1.604113 -4.329582 15.3091 -16.29051 -0 15.88058 -0 -3.161656 -21.768 14.33258 -1.670116 -1.872019 3.596695 3.845118 10.28921 -8.946157 0.6312581 20.21882 8.240199 4.13212 -28.19388 9.841985 6.07975 -17.88453 11.62381 89.82265 34.24933 -25.66057 -0 0 10.10024 -5.642805 7.308779 4.518117 6.253781 -22.70286 -3.632106 -92.36024 28.04314 20.64613 0 0 -24.83859 8.300123 11.61206 6.754104
2.542532 97.99014 34.05574 -3.0814 4.847924 3.087307 9.083807 -32.59117 5.783611 -0 15.18882 -0 -8.007195 -2.050388 -1.288253 -3.63389 15.039 -15.28004 -0 22.67835 -0 -6.484522 -17.94014 11.51621 -1.647712 -1.76851 3.623978 3.711562 10.40444 -8.8891 0.5823639 20.24213 8.20896 4.193408 -27.81282 9.579957 6.07843 -17.80153 11.64213 89.90838 34.49058 -25.60338 -0 0 9.849489 -6.321893 7.60458 4.970278 6.145322 -22.7901 -3.848756 -92.00106 28.08771 20.38585 0 0 -25.28265 7.857509 11.2518 7.38424
2.71772 98.38067 40.18018 -3.611003 4.117648 3.527456 9.555763 -28.22943 5.746149 -0 17.02526 -0 -8.243266 -3.467849 -1.377449 -2.994432 13.36723 -13.79431 -0 31.53771 -0 -9.029383 -13.24477 9.318326 -1.677511 -1.688601 3.750967 3.495272 10.54617 -8.746046 0.5504773 20.35916 8.055689 4.178202 -27.20643 9.211882 6.069269 -17.77814 11.64583 89.76168 34.79745 -25.15991 -0 0 9.79974 -7.324536 8.038843 5.554782 5.963395 -22.7732 -4.003105 -91.68393 28.02582 20.24643 0 0 -25.23675 7.341278 11.00311 8.007944
2.988184 99.28055 46.42539 -3.719726 2.922978 3.452499 9.663216 -23.1633 5.901411 -0 17.88058 -0 -8.211447 -5.625492 -1.813312 -2.586542 9.889315 -11.97569 -0 41.68221 -0 -9.797507 -8.740438 8.347167 -1.763769 -1.627908 3.994686 3.190211 10.70175 -8.501183 0.5371053 20.56529 7.789676 4.091842 -26.39533 8.754546 6.037842 -17.84213 11.63877 89.3231 35.14715 -24.25208 -0 0 10.01419 -8.687879 8.59375 6.297901 5.705092 -22.62414 -4.075026 -91.44152 27.85205 20.29015 0 0 -24.64993 6.748566 10.85199 8.620787
3.333857 100.4841 52.52479 -3.15553 1.324724 2.872716 8.961215 -17.7159 5.725383 -0 17.08553 -0 -8.321792 -7.744128 -2.109173 -2.540524 4.703924 -10.33521 -0 51.35461 -0 -8.770213 -5.598368 8.673553 -1.898827 -1.578514 4.352552 2.806518 10.84363 -8.154104 0.540579 20.83386 7.452055 3.957347 -25.45595 8.254681 5.966391 -18.01441 11.62627 88.57486 35.4937 -22.87276 -0 0 10.53195 -10.37852 9.212857 7.197246 5.388589 -22.33337 -4.048724 -91.31038 27.59079 20.56832 0 0 -23.5718 6.088948 10.76685 9.224883
3.690421 101.7522 58.31594 -1.940013 -0.4896671 2.088586 7.380772 -11.92403 4.652765 -0 14.8422 -0 -8.794516 -9.215999 -1.727033 -2.86001 -1.503428 -9.329153 -0 58.50997 -0 -7.067406 -4.403553 9.873164 -2.062789 -1.529255 4.795443 2.37274 10.94195 -7.728094 0.5547921 21.1204 7.105867 3.809015 -24.49759 7.772054 5.843082 -18.29175 11.61463 87.57048 35.7885 -21.11965 -0 0 11.32736 -12.29443 9.82796 8.216633 5.04942 -21.92462 -3.924684 -91.29838 27.28034 21.07425 0 0 -22.17158 5.390925 10.70011 9.82011
3.99579 102.877 63.79013 -0.4401373 -2.193295 1.468757 5.517632 -5.76941 3.012883 -0 11.95269 -0 -9.113869 -9.997909 -0.7405132 -3.192474 -7.988733 -8.754754 -0 61.53531 -0 -5.953263 -4.729446 11.36363 -2.23567 -1.468651 5.291625 1.916668 10.9829 -7.251137 0.5727491 21.38665 6.799254 3.671908 -23.59562 7.343969 5.663999 -18.6545 11.60966 86.38816 36.00101 -19.11262 -0 0 12.33815 -14.34902 10.4026 9.321998 4.716658 -21.43323 -3.716078 -91.37786 26.93089 21.75361 0 0 -20.62468 4.689517 10.60131 10.39415
4.247331 103.6385 69.06478 0.7670201 -3.526918 1.123455 4.247145 0.2745989 2.07287 -0 9.376205 -0 -8.317459 -10.44312 0.03974172 -2.773545 -14.1947 -7.683331 -0 59.29609 -0 -5.556275 -5.425188 12.84602 -2.408387 -1.390268 5.834364 1.446939 10.96363 -6.728037 0.5923391 21.62062 6.544832 3.549562 -22.7705 6.979886 5.426017 -19.09555 11.61163 85.05632 36.11384 -16.88573 -0 0 13.54297 -16.50878 10.92096 10.50194 4.395932 -20.86621 -3.431116 -91.53763 26.53322 22.58873 0 0 -18.98735 4.004925 10.44522 10.9322
4.521228 103.7955 74.30125 1.175661 -4.584417 0.8511282 4.031488 5.415807 2.483465 -0 8.000501 -0 -6.381471 -11.27278 -0.05927172 -1.086949 -19.44574 -5.563449 -0 51.57777 -0 -5.135065 -5.658645 14.51619 -2.57731 -1.293515 6.427465 0.9654755 10.87916 -6.151566 0.6149025 21.82502 6.338516 3.43496 -22.03229 6.683877 5.126224 -19.61777 11.61387 83.57901 36.11396 -14.43475 -0 0 14.94785 -18.72584 11.35305 11.73789 4.082753 -20.21336 -3.072732 -91.79548 26.09184 23.60083 0 0 -17.25462 3.353669 10.23427 11.41772
